{
    "asset" : {
        "generator" : "Khronos glTF Blender I/O v1.6.16",
        "version" : "2.0"
    },
    "scene" : 0,
    "scenes" : [
        {
            "name" : "Scene",
            "nodes" : [
                0,
                1,
                2,
                3,
                4,
                5,
                6,
                7,
                8
            ]
        }
    ],
    "nodes" : [
        {
            "mesh" : 0,
            "name" : "\u5713\u67f1\u9ad4",
            "scale" : [
                3.2438535690307617,
                0.8608137369155884,
                3.2438535690307617
            ],
            "translation" : [
                0,
                0.9441637992858887,
                0
            ]
        },
        {
            "mesh" : 0,
            "name" : "\u5713\u67f1\u9ad4.001",
            "scale" : [
                2.922166347503662,
                5.230526924133301,
                2.922166347503662
            ],
            "translation" : [
                0,
                6.651666641235352,
                0
            ]
        },
        {
            "mesh" : 1,
            "name" : "\u5713\u67f1\u9ad4.002",
            "scale" : [
                3.08947491645813,
                0.11553839594125748,
                3.08947491645813
            ],
            "translation" : [
                0,
                6.885763645172119,
                0
            ]
        },
        {
            "mesh" : 2,
            "name" : "\u5713\u67f1\u9ad4.004",
            "rotation" : [
                0.7071068286895752,
                0,
                0,
                0.7071068286895752
            ],
            "scale" : [
                0.16825586557388306,
                0.24912695586681366,
                0.16825586557388306
            ],
            "translation" : [
                -0.02227938175201416,
                13.001153945922852,
                -3.287733554840088
            ]
        },
        {
            "mesh" : 3,
            "name" : "\u5713\u67f1\u9ad4.005",
            "rotation" : [
                0.7071068286895752,
                0,
                0,
                0.7071068286895752
            ],
            "scale" : [
                -0.273647278547287,
                0.13047875463962555,
                -0.273647278547287
            ],
            "translation" : [
                -0.009054355323314667,
                13.012420654296875,
                -3.571685552597046
            ]
        },
        {
            "mesh" : 4,
            "name" : "\u5713\u9310\u9ad4",
            "scale" : [
                3.3657703399658203,
                2.1145427227020264,
                3.3657703399658203
            ],
            "translation" : [
                0,
                13.801197052001953,
                0
            ]
        },
        {
            "mesh" : 5,
            "name" : "\u7acb\u65b9\u9ad4",
            "scale" : [
                0.6019205451011658,
                0.6019205451011658,
                0.6019205451011658
            ],
            "translation" : [
                0.011382728815078735,
                12.806129455566406,
                -2.4257047176361084
            ]
        },
        {
            "mesh" : 6,
            "name" : "\u7acb\u65b9\u9ad4.001",
            "scale" : [
                0.5269976258277893,
                -0.6677559018135071,
                0.0714113786816597
            ],
            "translation" : [
                -0.10653495788574219,
                7.650410175323486,
                -2.906524896621704
            ]
        },
        {
            "mesh" : 7,
            "name" : "\u7acb\u65b9\u9ad4.002",
            "scale" : [
                0.5269976258277893,
                -0.5553411245346069,
                0.0714113786816597
            ],
            "translation" : [
                -0.004378490149974823,
                0.6463232636451721,
                -3.1994826793670654
            ]
        }
    ],
    "materials" : [
        {
            "doubleSided" : true,
            "name" : "\u4e3b\u8981",
            "pbrMetallicRoughness" : {
                "baseColorFactor" : [
                    0.8412022590637207,
                    0.6841464042663574,
                    0.5572029948234558,
                    1
                ],
                "metallicFactor" : 0,
                "roughnessFactor" : 0.5
            }
        },
        {
            "doubleSided" : true,
            "name" : "\u7070",
            "pbrMetallicRoughness" : {
                "baseColorFactor" : [
                    0.2360469251871109,
                    0.27098557353019714,
                    0.39311376214027405,
                    1
                ],
                "metallicFactor" : 0,
                "roughnessFactor" : 0.5
            }
        },
        {
            "doubleSided" : true,
            "name" : "\u5c4b\u9802",
            "pbrMetallicRoughness" : {
                "baseColorFactor" : [
                    0.4575308859348297,
                    0.029511675238609314,
                    0.03503187745809555,
                    1
                ],
                "metallicFactor" : 0,
                "roughnessFactor" : 0.5
            }
        },
        {
            "doubleSided" : true,
            "name" : "\u8449\u7247.001",
            "pbrMetallicRoughness" : {
                "baseColorFactor" : [
                    0.6618629097938538,
                    0.1637318879365921,
                    0.0976468175649643,
                    1
                ],
                "metallicFactor" : 0,
                "roughnessFactor" : 0.5
            }
        }
    ],
    "meshes" : [
        {
            "name" : "\u5713\u67f1\u9ad4",
            "primitives" : [
                {
                    "attributes" : {
                        "POSITION" : 0,
                        "NORMAL" : 1,
                        "TEXCOORD_0" : 2
                    },
                    "indices" : 3,
                    "material" : 0
                }
            ]
        },
        {
            "name" : "\u5713\u67f1\u9ad4.001",
            "primitives" : [
                {
                    "attributes" : {
                        "POSITION" : 4,
                        "NORMAL" : 5,
                        "TEXCOORD_0" : 6
                    },
                    "indices" : 3,
                    "material" : 0
                }
            ]
        },
        {
            "name" : "\u5713\u67f1\u9ad4.002",
            "primitives" : [
                {
                    "attributes" : {
                        "POSITION" : 7,
                        "NORMAL" : 8,
                        "TEXCOORD_0" : 9
                    },
                    "indices" : 3,
                    "material" : 1
                }
            ]
        },
        {
            "name" : "\u5713\u67f1\u9ad4.004",
            "primitives" : [
                {
                    "attributes" : {
                        "POSITION" : 10,
                        "NORMAL" : 11,
                        "TEXCOORD_0" : 12
                    },
                    "indices" : 3,
                    "material" : 1
                }
            ]
        },
        {
            "name" : "\u5713\u9310\u9ad4",
            "primitives" : [
                {
                    "attributes" : {
                        "POSITION" : 13,
                        "NORMAL" : 14,
                        "TEXCOORD_0" : 15
                    },
                    "indices" : 16,
                    "material" : 2
                }
            ]
        },
        {
            "name" : "\u7acb\u65b9\u9ad4",
            "primitives" : [
                {
                    "attributes" : {
                        "POSITION" : 17,
                        "NORMAL" : 18,
                        "TEXCOORD_0" : 19
                    },
                    "indices" : 20,
                    "material" : 2
                }
            ]
        },
        {
            "name" : "\u7acb\u65b9\u9ad4.001",
            "primitives" : [
                {
                    "attributes" : {
                        "POSITION" : 21,
                        "NORMAL" : 22,
                        "TEXCOORD_0" : 23
                    },
                    "indices" : 20,
                    "material" : 3
                }
            ]
        },
        {
            "name" : "\u7acb\u65b9\u9ad4.002",
            "primitives" : [
                {
                    "attributes" : {
                        "POSITION" : 24,
                        "NORMAL" : 25,
                        "TEXCOORD_0" : 26
                    },
                    "indices" : 20,
                    "material" : 3
                }
            ]
        }
    ],
    "accessors" : [
        {
            "bufferView" : 0,
            "componentType" : 5126,
            "count" : 192,
            "max" : [
                1,
                1,
                1
            ],
            "min" : [
                -1,
                -1,
                -1
            ],
            "type" : "VEC3"
        },
        {
            "bufferView" : 1,
            "componentType" : 5126,
            "count" : 192,
            "type" : "VEC3"
        },
        {
            "bufferView" : 2,
            "componentType" : 5126,
            "count" : 192,
            "type" : "VEC2"
        },
        {
            "bufferView" : 3,
            "componentType" : 5123,
            "count" : 372,
            "type" : "SCALAR"
        },
        {
            "bufferView" : 4,
            "componentType" : 5126,
            "count" : 192,
            "max" : [
                1,
                1,
                1
            ],
            "min" : [
                -1,
                -1,
                -1
            ],
            "type" : "VEC3"
        },
        {
            "bufferView" : 5,
            "componentType" : 5126,
            "count" : 192,
            "type" : "VEC3"
        },
        {
            "bufferView" : 6,
            "componentType" : 5126,
            "count" : 192,
            "type" : "VEC2"
        },
        {
            "bufferView" : 7,
            "componentType" : 5126,
            "count" : 192,
            "max" : [
                1,
                1,
                1
            ],
            "min" : [
                -1,
                -1,
                -1
            ],
            "type" : "VEC3"
        },
        {
            "bufferView" : 8,
            "componentType" : 5126,
            "count" : 192,
            "type" : "VEC3"
        },
        {
            "bufferView" : 9,
            "componentType" : 5126,
            "count" : 192,
            "type" : "VEC2"
        },
        {
            "bufferView" : 10,
            "componentType" : 5126,
            "count" : 192,
            "max" : [
                1,
                1,
                1
            ],
            "min" : [
                -1,
                -1,
                -1
            ],
            "type" : "VEC3"
        },
        {
            "bufferView" : 11,
            "componentType" : 5126,
            "count" : 192,
            "type" : "VEC3"
        },
        {
            "bufferView" : 12,
            "componentType" : 5126,
            "count" : 192,
            "type" : "VEC2"
        },
        {
            "bufferView" : 13,
            "componentType" : 5126,
            "count" : 128,
            "max" : [
                1,
                1,
                1
            ],
            "min" : [
                -1,
                -1,
                -1
            ],
            "type" : "VEC3"
        },
        {
            "bufferView" : 14,
            "componentType" : 5126,
            "count" : 128,
            "type" : "VEC3"
        },
        {
            "bufferView" : 15,
            "componentType" : 5126,
            "count" : 128,
            "type" : "VEC2"
        },
        {
            "bufferView" : 16,
            "componentType" : 5123,
            "count" : 186,
            "type" : "SCALAR"
        },
        {
            "bufferView" : 17,
            "componentType" : 5126,
            "count" : 24,
            "max" : [
                1,
                1,
                1
            ],
            "min" : [
                -1,
                -1,
                -1
            ],
            "type" : "VEC3"
        },
        {
            "bufferView" : 18,
            "componentType" : 5126,
            "count" : 24,
            "type" : "VEC3"
        },
        {
            "bufferView" : 19,
            "componentType" : 5126,
            "count" : 24,
            "type" : "VEC2"
        },
        {
            "bufferView" : 20,
            "componentType" : 5123,
            "count" : 36,
            "type" : "SCALAR"
        },
        {
            "bufferView" : 21,
            "componentType" : 5126,
            "count" : 24,
            "max" : [
                1,
                1,
                1
            ],
            "min" : [
                -1,
                -1,
                -1
            ],
            "type" : "VEC3"
        },
        {
            "bufferView" : 22,
            "componentType" : 5126,
            "count" : 24,
            "type" : "VEC3"
        },
        {
            "bufferView" : 23,
            "componentType" : 5126,
            "count" : 24,
            "type" : "VEC2"
        },
        {
            "bufferView" : 24,
            "componentType" : 5126,
            "count" : 24,
            "max" : [
                1,
                1,
                1
            ],
            "min" : [
                -1,
                -1,
                -1
            ],
            "type" : "VEC3"
        },
        {
            "bufferView" : 25,
            "componentType" : 5126,
            "count" : 24,
            "type" : "VEC3"
        },
        {
            "bufferView" : 26,
            "componentType" : 5126,
            "count" : 24,
            "type" : "VEC2"
        }
    ],
    "bufferViews" : [
        {
            "buffer" : 0,
            "byteLength" : 2304,
            "byteOffset" : 0
        },
        {
            "buffer" : 0,
            "byteLength" : 2304,
            "byteOffset" : 2304
        },
        {
            "buffer" : 0,
            "byteLength" : 1536,
            "byteOffset" : 4608
        },
        {
            "buffer" : 0,
            "byteLength" : 744,
            "byteOffset" : 6144
        },
        {
            "buffer" : 0,
            "byteLength" : 2304,
            "byteOffset" : 6888
        },
        {
            "buffer" : 0,
            "byteLength" : 2304,
            "byteOffset" : 9192
        },
        {
            "buffer" : 0,
            "byteLength" : 1536,
            "byteOffset" : 11496
        },
        {
            "buffer" : 0,
            "byteLength" : 2304,
            "byteOffset" : 13032
        },
        {
            "buffer" : 0,
            "byteLength" : 2304,
            "byteOffset" : 15336
        },
        {
            "buffer" : 0,
            "byteLength" : 1536,
            "byteOffset" : 17640
        },
        {
            "buffer" : 0,
            "byteLength" : 2304,
            "byteOffset" : 19176
        },
        {
            "buffer" : 0,
            "byteLength" : 2304,
            "byteOffset" : 21480
        },
        {
            "buffer" : 0,
            "byteLength" : 1536,
            "byteOffset" : 23784
        },
        {
            "buffer" : 0,
            "byteLength" : 1536,
            "byteOffset" : 25320
        },
        {
            "buffer" : 0,
            "byteLength" : 1536,
            "byteOffset" : 26856
        },
        {
            "buffer" : 0,
            "byteLength" : 1024,
            "byteOffset" : 28392
        },
        {
            "buffer" : 0,
            "byteLength" : 372,
            "byteOffset" : 29416
        },
        {
            "buffer" : 0,
            "byteLength" : 288,
            "byteOffset" : 29788
        },
        {
            "buffer" : 0,
            "byteLength" : 288,
            "byteOffset" : 30076
        },
        {
            "buffer" : 0,
            "byteLength" : 192,
            "byteOffset" : 30364
        },
        {
            "buffer" : 0,
            "byteLength" : 72,
            "byteOffset" : 30556
        },
        {
            "buffer" : 0,
            "byteLength" : 288,
            "byteOffset" : 30628
        },
        {
            "buffer" : 0,
            "byteLength" : 288,
            "byteOffset" : 30916
        },
        {
            "buffer" : 0,
            "byteLength" : 192,
            "byteOffset" : 31204
        },
        {
            "buffer" : 0,
            "byteLength" : 288,
            "byteOffset" : 31396
        },
        {
            "buffer" : 0,
            "byteLength" : 288,
            "byteOffset" : 31684
        },
        {
            "buffer" : 0,
            "byteLength" : 192,
            "byteOffset" : 31972
        }
    ],
    "buffers" : [
        {
            "byteLength" : 32164,
            "uri" : "windmill.bin"
        }
    ]
}
