{
    "asset" : {
        "generator" : "Khronos glTF Blender I/O v1.6.16",
        "version" : "2.0"
    },
    "scene" : 0,
    "scenes" : [
        {
            "name" : "Scene",
            "nodes" : [
                1,
                3,
                5,
                7
            ]
        }
    ],
    "nodes" : [
        {
            "mesh" : 0,
            "name" : "\u7acb\u65b9\u9ad4.003",
            "rotation" : [
                1,
                0,
                0,
                0
            ],
            "scale" : [
                -0.18614888191223145,
                -0.5712640285491943,
                -0.5157397985458374
            ],
            "translation" : [
                -0.7038766145706177,
                -1.5257883071899414,
                0.0044841766357421875
            ]
        },
        {
            "children" : [
                0
            ],
            "mesh" : 1,
            "name" : "\u7acb\u65b9\u9ad4.004",
            "rotation" : [
                0,
                0,
                -0.3826834559440613,
                0.9238795042037964
            ],
            "scale" : [
                0.5634500980377197,
                2.387491464614868,
                -0.20336924493312836
            ],
            "translation" : [
                3.708827495574951,
                3.3360252380371094,
                -3.247547149658203
            ]
        },
        {
            "mesh" : 2,
            "name" : "\u7acb\u65b9\u9ad4.005",
            "rotation" : [
                1,
                0,
                0,
                0
            ],
            "scale" : [
                -0.18614888191223145,
                -0.5712640285491943,
                -0.5157397985458374
            ],
            "translation" : [
                -0.7038780450820923,
                -1.5257881879806519,
                0.0044841766357421875
            ]
        },
        {
            "children" : [
                2
            ],
            "mesh" : 3,
            "name" : "\u7acb\u65b9\u9ad4.006",
            "rotation" : [
                0,
                0,
                -0.9238796234130859,
                0.38268348574638367
            ],
            "scale" : [
                0.5634500980377197,
                2.387491464614868,
                -0.20336924493312836
            ],
            "translation" : [
                3.1638331413269043,
                -3.604175567626953,
                -3.2475473880767822
            ]
        },
        {
            "mesh" : 4,
            "name" : "\u7acb\u65b9\u9ad4.007",
            "rotation" : [
                1,
                0,
                0,
                0
            ],
            "scale" : [
                -0.18614888191223145,
                -0.5712639093399048,
                -0.5157397985458374
            ],
            "translation" : [
                -0.7038772106170654,
                -1.5257885456085205,
                0.004486083984375
            ]
        },
        {
            "children" : [
                4
            ],
            "mesh" : 5,
            "name" : "\u7acb\u65b9\u9ad4.008",
            "rotation" : [
                0,
                0,
                -0.9238795042037964,
                -0.38268351554870605
            ],
            "scale" : [
                0.5634500980377197,
                2.387491464614868,
                -0.20336924493312836
            ],
            "translation" : [
                -3.7682137489318848,
                -3.035017967224121,
                -3.2475473880767822
            ]
        },
        {
            "mesh" : 6,
            "name" : "\u7acb\u65b9\u9ad4.009",
            "rotation" : [
                1,
                0,
                0,
                0
            ],
            "scale" : [
                -0.18614888191223145,
                -0.5712640285491943,
                -0.5157397985458374
            ],
            "translation" : [
                -0.7038770914077759,
                -1.5257887840270996,
                0.004486083984375
            ]
        },
        {
            "children" : [
                6
            ],
            "mesh" : 7,
            "name" : "\u7acb\u65b9\u9ad4.010",
            "rotation" : [
                0,
                0,
                -0.38268327713012695,
                -0.9238796234130859
            ],
            "scale" : [
                0.5634500980377197,
                2.387491464614868,
                -0.20336924493312836
            ],
            "translation" : [
                -3.228243350982666,
                3.911623001098633,
                -3.247547149658203
            ]
        }
    ],
    "materials" : [
        {
            "doubleSided" : true,
            "name" : "\u8449\u7247.001",
            "pbrMetallicRoughness" : {
                "baseColorFactor" : [
                    0.45223939418792725,
                    0.5053924918174744,
                    0.6859565377235413,
                    1
                ],
                "metallicFactor" : 0,
                "roughnessFactor" : 0.5
            }
        }
    ],
    "meshes" : [
        {
            "name" : "\u7acb\u65b9\u9ad4.003",
            "primitives" : [
                {
                    "attributes" : {
                        "POSITION" : 0,
                        "NORMAL" : 1,
                        "TEXCOORD_0" : 2
                    },
                    "indices" : 3,
                    "material" : 0
                }
            ]
        },
        {
            "name" : "\u7acb\u65b9\u9ad4.004",
            "primitives" : [
                {
                    "attributes" : {
                        "POSITION" : 4,
                        "NORMAL" : 5,
                        "TEXCOORD_0" : 6
                    },
                    "indices" : 3,
                    "material" : 0
                }
            ]
        },
        {
            "name" : "\u7acb\u65b9\u9ad4.006",
            "primitives" : [
                {
                    "attributes" : {
                        "POSITION" : 7,
                        "NORMAL" : 8,
                        "TEXCOORD_0" : 9
                    },
                    "indices" : 3,
                    "material" : 0
                }
            ]
        },
        {
            "name" : "\u7acb\u65b9\u9ad4.007",
            "primitives" : [
                {
                    "attributes" : {
                        "POSITION" : 10,
                        "NORMAL" : 11,
                        "TEXCOORD_0" : 12
                    },
                    "indices" : 3,
                    "material" : 0
                }
            ]
        },
        {
            "name" : "\u7acb\u65b9\u9ad4.008",
            "primitives" : [
                {
                    "attributes" : {
                        "POSITION" : 13,
                        "NORMAL" : 14,
                        "TEXCOORD_0" : 15
                    },
                    "indices" : 3,
                    "material" : 0
                }
            ]
        },
        {
            "name" : "\u7acb\u65b9\u9ad4.009",
            "primitives" : [
                {
                    "attributes" : {
                        "POSITION" : 16,
                        "NORMAL" : 17,
                        "TEXCOORD_0" : 18
                    },
                    "indices" : 3,
                    "material" : 0
                }
            ]
        },
        {
            "name" : "\u7acb\u65b9\u9ad4.010",
            "primitives" : [
                {
                    "attributes" : {
                        "POSITION" : 19,
                        "NORMAL" : 20,
                        "TEXCOORD_0" : 21
                    },
                    "indices" : 3,
                    "material" : 0
                }
            ]
        },
        {
            "name" : "\u7acb\u65b9\u9ad4.011",
            "primitives" : [
                {
                    "attributes" : {
                        "POSITION" : 22,
                        "NORMAL" : 23,
                        "TEXCOORD_0" : 24
                    },
                    "indices" : 3,
                    "material" : 0
                }
            ]
        }
    ],
    "accessors" : [
        {
            "bufferView" : 0,
            "componentType" : 5126,
            "count" : 24,
            "max" : [
                1,
                1,
                1
            ],
            "min" : [
                -1,
                -1,
                -1
            ],
            "type" : "VEC3"
        },
        {
            "bufferView" : 1,
            "componentType" : 5126,
            "count" : 24,
            "type" : "VEC3"
        },
        {
            "bufferView" : 2,
            "componentType" : 5126,
            "count" : 24,
            "type" : "VEC2"
        },
        {
            "bufferView" : 3,
            "componentType" : 5123,
            "count" : 36,
            "type" : "SCALAR"
        },
        {
            "bufferView" : 4,
            "componentType" : 5126,
            "count" : 24,
            "max" : [
                1,
                1,
                1
            ],
            "min" : [
                -1,
                -1,
                -1
            ],
            "type" : "VEC3"
        },
        {
            "bufferView" : 5,
            "componentType" : 5126,
            "count" : 24,
            "type" : "VEC3"
        },
        {
            "bufferView" : 6,
            "componentType" : 5126,
            "count" : 24,
            "type" : "VEC2"
        },
        {
            "bufferView" : 7,
            "componentType" : 5126,
            "count" : 24,
            "max" : [
                1,
                1,
                1
            ],
            "min" : [
                -1,
                -1,
                -1
            ],
            "type" : "VEC3"
        },
        {
            "bufferView" : 8,
            "componentType" : 5126,
            "count" : 24,
            "type" : "VEC3"
        },
        {
            "bufferView" : 9,
            "componentType" : 5126,
            "count" : 24,
            "type" : "VEC2"
        },
        {
            "bufferView" : 10,
            "componentType" : 5126,
            "count" : 24,
            "max" : [
                1,
                1,
                1
            ],
            "min" : [
                -1,
                -1,
                -1
            ],
            "type" : "VEC3"
        },
        {
            "bufferView" : 11,
            "componentType" : 5126,
            "count" : 24,
            "type" : "VEC3"
        },
        {
            "bufferView" : 12,
            "componentType" : 5126,
            "count" : 24,
            "type" : "VEC2"
        },
        {
            "bufferView" : 13,
            "componentType" : 5126,
            "count" : 24,
            "max" : [
                1,
                1,
                1
            ],
            "min" : [
                -1,
                -1,
                -1
            ],
            "type" : "VEC3"
        },
        {
            "bufferView" : 14,
            "componentType" : 5126,
            "count" : 24,
            "type" : "VEC3"
        },
        {
            "bufferView" : 15,
            "componentType" : 5126,
            "count" : 24,
            "type" : "VEC2"
        },
        {
            "bufferView" : 16,
            "componentType" : 5126,
            "count" : 24,
            "max" : [
                1,
                1,
                1
            ],
            "min" : [
                -1,
                -1,
                -1
            ],
            "type" : "VEC3"
        },
        {
            "bufferView" : 17,
            "componentType" : 5126,
            "count" : 24,
            "type" : "VEC3"
        },
        {
            "bufferView" : 18,
            "componentType" : 5126,
            "count" : 24,
            "type" : "VEC2"
        },
        {
            "bufferView" : 19,
            "componentType" : 5126,
            "count" : 24,
            "max" : [
                1,
                1,
                1
            ],
            "min" : [
                -1,
                -1,
                -1
            ],
            "type" : "VEC3"
        },
        {
            "bufferView" : 20,
            "componentType" : 5126,
            "count" : 24,
            "type" : "VEC3"
        },
        {
            "bufferView" : 21,
            "componentType" : 5126,
            "count" : 24,
            "type" : "VEC2"
        },
        {
            "bufferView" : 22,
            "componentType" : 5126,
            "count" : 24,
            "max" : [
                1,
                1,
                1
            ],
            "min" : [
                -1,
                -1,
                -1
            ],
            "type" : "VEC3"
        },
        {
            "bufferView" : 23,
            "componentType" : 5126,
            "count" : 24,
            "type" : "VEC3"
        },
        {
            "bufferView" : 24,
            "componentType" : 5126,
            "count" : 24,
            "type" : "VEC2"
        }
    ],
    "bufferViews" : [
        {
            "buffer" : 0,
            "byteLength" : 288,
            "byteOffset" : 0
        },
        {
            "buffer" : 0,
            "byteLength" : 288,
            "byteOffset" : 288
        },
        {
            "buffer" : 0,
            "byteLength" : 192,
            "byteOffset" : 576
        },
        {
            "buffer" : 0,
            "byteLength" : 72,
            "byteOffset" : 768
        },
        {
            "buffer" : 0,
            "byteLength" : 288,
            "byteOffset" : 840
        },
        {
            "buffer" : 0,
            "byteLength" : 288,
            "byteOffset" : 1128
        },
        {
            "buffer" : 0,
            "byteLength" : 192,
            "byteOffset" : 1416
        },
        {
            "buffer" : 0,
            "byteLength" : 288,
            "byteOffset" : 1608
        },
        {
            "buffer" : 0,
            "byteLength" : 288,
            "byteOffset" : 1896
        },
        {
            "buffer" : 0,
            "byteLength" : 192,
            "byteOffset" : 2184
        },
        {
            "buffer" : 0,
            "byteLength" : 288,
            "byteOffset" : 2376
        },
        {
            "buffer" : 0,
            "byteLength" : 288,
            "byteOffset" : 2664
        },
        {
            "buffer" : 0,
            "byteLength" : 192,
            "byteOffset" : 2952
        },
        {
            "buffer" : 0,
            "byteLength" : 288,
            "byteOffset" : 3144
        },
        {
            "buffer" : 0,
            "byteLength" : 288,
            "byteOffset" : 3432
        },
        {
            "buffer" : 0,
            "byteLength" : 192,
            "byteOffset" : 3720
        },
        {
            "buffer" : 0,
            "byteLength" : 288,
            "byteOffset" : 3912
        },
        {
            "buffer" : 0,
            "byteLength" : 288,
            "byteOffset" : 4200
        },
        {
            "buffer" : 0,
            "byteLength" : 192,
            "byteOffset" : 4488
        },
        {
            "buffer" : 0,
            "byteLength" : 288,
            "byteOffset" : 4680
        },
        {
            "buffer" : 0,
            "byteLength" : 288,
            "byteOffset" : 4968
        },
        {
            "buffer" : 0,
            "byteLength" : 192,
            "byteOffset" : 5256
        },
        {
            "buffer" : 0,
            "byteLength" : 288,
            "byteOffset" : 5448
        },
        {
            "buffer" : 0,
            "byteLength" : 288,
            "byteOffset" : 5736
        },
        {
            "buffer" : 0,
            "byteLength" : 192,
            "byteOffset" : 6024
        }
    ],
    "buffers" : [
        {
            "byteLength" : 6216,
            "uri" : "leaf.bin"
        }
    ]
}
